<svg width="240" height="80" viewBox="0 0 240 80" xmlns="http://www.w3.org/2000/svg"><defs><clipPath id="satori_bc-id"><path x="0" y="0" width="240" height="80" d="M16,0 h208 a16,16 0 0 1 16,16 v48 a16,16 0 0 1 -16,16 h-208 a16,16 0 0 1 -16,-16 v-48 a16,16 0 0 1 16,-16"/></clipPath></defs><mask id="satori_om-id"><rect x="2" y="2" width="236" height="76" fill="#fff"/><path width="240" height="80" fill="none" stroke="#000" stroke-width="4" d="M4.686,4.686 A16,16 0 0 1 16,0 h208 a16,16 0 0 1 16,16 v48 a16,16 0 0 1 -16,16 h-208 a16,16 0 0 1 -16,-16 v-48 A16,16 0 0 1 4.686,4.686"/></mask><path x="0" y="0" width="240" height="80" fill="black" d="M16,0 h208 a16,16 0 0 1 16,16 v48 a16,16 0 0 1 -16,16 h-208 a16,16 0 0 1 -16,-16 v-48 a16,16 0 0 1 16,-16"/><path width="240" height="80" clip-path="url(#satori_bc-id)" fill="none" stroke="#888A85" stroke-width="4" d="M4.686,4.686 A16,16 0 0 1 16,0 h208 a16,16 0 0 1 16,16 v48 a16,16 0 0 1 -16,16 h-208 a16,16 0 0 1 -16,-16 v-48 A16,16 0 0 1 4.686,4.686"/><clipPath id="satori_cp-id-0"><rect x="34" y="22" width="37" height="36"/></clipPath><mask id="satori_om-id-0"><rect x="34" y="22" width="37" height="36" fill="#fff"/></mask><image x="34" y="22" width="37" height="36" href="data:image/svg+xml;utf8,%3Csvg  version=%221.1%22 xmlns=%22http://www.w3.org/2000/svg%22 width=%2237.6228125%22 height=%2236%22 viewBox=%220 0 66.885 64%22%3E%3Cg transform=%22translate(-30.558 -32)%22%3E%3Cg transform=%22matrix(1.7016 0 0 1.7016 -237.69 -115.36)%22 fill=%22white%22%3E%3Ccircle cx=%22166.69%22 cy=%2295.647%22 r=%229.0478%22 stroke-width=%22.58767%22%3E%3C/circle%3E%3Crect x=%22158.41%22 y=%22107.8%22 width=%2216.412%22 height=%2216.412%22 rx=%224.3765%22 ry=%224.3765%22 stroke-width=%22.58767%22%3E%3C/rect%3E%3Cpath transform=%22matrix(.9259 .53457 .53457 -.9259 99.826 110.69)%22 d=%22m69.514 58.833h-1.7806-10.247a2.4441 2.4441 60 0 1-2.1167-3.6662l6.0139-10.416a2.4441 2.4441 2.522e-7 0 1 4.2333 0l6.0139 10.416a2.4441 2.4441 120 0 1-2.1167 3.6662z%22 stroke-width=%22.55348%22%3E%3C/path%3E%3Cpath d=%22m194.99 116.11c0 0.87946-0.70801 1.5875-1.5875 1.5875h-12.7c-0.87946 0-1.5875-0.70802-1.5875-1.5875s0.70802-1.5875 1.5875-1.5875h12.7c0.87946 0 1.5875 0.70801 1.5875 1.5875zm-7.9375-7.9375c0.87946 0 1.5875 0.70802 1.5875 1.5875v12.7c0 0.87946-0.70802 1.5875-1.5875 1.5875-0.87947 0-1.5875-0.70802-1.5875-1.5875v-12.7c0-0.87947 0.70802-1.5875 1.5875-1.5875z%22 stroke-width=%225.8767%22%3E%3C/path%3E%3C/g%3E%3C/g%3E%3C/svg%3E" preserveAspectRatio="none" clip-path="url(#satori_cp-id-0)" mask="url(#satori_om-id-0)"/><mask id="satori_om-id-0-0"><rect x="34" y="22" width="0" height="36" fill="#fff"/></mask><mask id="satori_om-id-0-0-0"><rect x="34" y="22" width="0" height="36" fill="#fff"/></mask><mask id="satori_om-id-0-0-0-0"><rect x="34" y="22" width="0" height="36" fill="#fff"/></mask><mask id="satori_om-id-0-0-0-1"><rect x="34" y="22" width="0" height="36" fill="#fff"/></mask><mask id="satori_om-id-0-0-0-2"><rect x="34" y="22" width="0" height="36" fill="#fff"/></mask><mask id="satori_om-id-0-0-0-3"><rect x="34" y="22" width="0" height="36" fill="#fff"/></mask><mask id="satori_om-id-1"><rect x="87" y="15" width="106" height="50" fill="#fff"/></mask><path fill="white" d="M87.6 21.0L87.6 19.7L98.4 19.7L98.4 21.0L87.6 21.0ZM92.1 30.0L92.1 20.8L93.4 20.8L93.4 30.0L92.1 30.0ZM92.8 23.7L92.8 23.7L93.7 22.7Q94.2 22.9 94.8 23.2Q95.3 23.5 95.9 23.9Q96.5 24.2 97.0 24.5Q97.5 24.8 97.8 25.1L97.8 25.1L96.9 26.3Q96.6 26.0 96.1 25.7Q95.6 25.3 95.0 25.0Q94.5 24.6 93.9 24.3Q93.3 24.0 92.8 23.7ZM107.8 19.5L107.8 19.5L108.8 18.9Q109.0 19.2 109.3 19.5Q109.6 19.7 109.8 20.0Q110.1 20.3 110.2 20.5L110.2 20.5L109.2 21.2Q109.0 20.8 108.6 20.4Q108.2 19.9 107.8 19.5ZM99.6 22.4L99.6 21.4L110.5 21.4L110.5 22.4L99.6 22.4ZM100.2 20.6L100.2 19.6L105.5 19.6L105.5 20.6L100.2 20.6ZM102.3 22.0L102.3 18.8L103.5 18.8L103.5 22.0L102.3 22.0ZM106.2 18.8L106.2 18.8L107.4 18.8Q107.4 20.4 107.5 21.8Q107.5 23.3 107.7 24.5Q107.8 25.8 108.0 26.7Q108.3 27.6 108.6 28.1Q108.9 28.6 109.2 28.6L109.2 28.6Q109.4 28.6 109.5 28.2Q109.6 27.8 109.7 26.8L109.7 26.8Q109.8 27.0 110.1 27.2Q110.4 27.4 110.6 27.5L110.6 27.5Q110.5 28.4 110.4 28.9Q110.2 29.5 109.9 29.7Q109.6 29.9 109.1 29.9L109.1 29.9Q108.5 29.9 108.1 29.5Q107.6 29.0 107.3 28.3Q107.0 27.5 106.7 26.5Q106.5 25.5 106.4 24.2Q106.3 23.0 106.2 21.6Q106.2 20.2 106.2 18.8ZM108.9 23.0L108.9 23.0L110.1 23.3Q109.6 24.7 109.1 26.0Q108.5 27.2 107.7 28.2Q106.9 29.3 105.9 30.0L105.9 30.0Q105.7 29.8 105.5 29.6Q105.2 29.3 105.0 29.2L105.0 29.2Q105.9 28.5 106.7 27.6Q107.4 26.6 108 25.4Q108.6 24.3 108.9 23.0ZM99.7 24.4L99.7 23.4L105.9 23.4L105.9 24.4L99.7 24.4ZM102.8 29.9L102.8 24.7L104.0 24.7L104.0 29.9L102.8 29.9ZM100.3 26.8L100.3 26.8Q100.3 26.6 100.2 26.4Q100.2 26.2 100.1 26.0Q100.0 25.8 99.9 25.6L99.9 25.6Q100.1 25.6 100.2 25.4Q100.4 25.3 100.5 25.0L100.5 25.0Q100.6 24.9 100.9 24.5Q101.1 24.0 101.3 23.5Q101.6 22.9 101.8 22.3L101.8 22.3L103.0 22.7Q102.8 23.3 102.4 23.9Q102.1 24.6 101.7 25.1Q101.4 25.7 101.0 26.1L101.0 26.1L101.0 26.2Q101.0 26.2 100.9 26.2Q100.8 26.3 100.7 26.4Q100.5 26.5 100.4 26.6Q100.3 26.7 100.3 26.8ZM100.3 26.8L100.3 26.8L100.3 25.8L100.9 25.5L105.7 25.5L105.7 26.6L101.3 26.6Q100.9 26.6 100.7 26.6Q100.4 26.7 100.3 26.8ZM99.8 28.8L99.7 27.7Q100.5 27.6 101.5 27.6Q102.5 27.5 103.6 27.4Q104.8 27.3 105.9 27.2L105.9 27.2L105.9 28.3Q104.8 28.4 103.7 28.5Q102.6 28.6 101.6 28.7Q100.6 28.8 99.8 28.8L99.8 28.8ZM113.0 21.4L113.0 20.2L122.4 20.2L122.4 21.4L113.0 21.4ZM112.3 23.5L112.3 20.2L113.7 20.2L113.7 23.5Q113.7 24.2 113.6 25.0Q113.6 25.9 113.4 26.8Q113.3 27.7 113.1 28.5Q112.9 29.4 112.5 30.1L112.5 30.1Q112.4 30.0 112.2 29.8Q111.9 29.7 111.7 29.6Q111.5 29.4 111.4 29.4L111.4 29.4Q111.7 28.7 111.9 28.0Q112.1 27.2 112.2 26.4Q112.3 25.6 112.3 24.9Q112.3 24.1 112.3 23.5L112.3 23.5ZM116.5 19.0L116.5 19.0L117.8 18.7Q118.0 19.1 118.2 19.6Q118.4 20.1 118.5 20.4L118.5 20.4L117.2 20.8Q117.1 20.4 116.9 19.9Q116.7 19.4 116.5 19.0ZM114.1 23.1L114.1 23.1L115.2 22.6Q115.5 23.3 115.8 24.0Q116.0 24.8 116.3 25.5Q116.5 26.2 116.6 26.7L116.6 26.7L115.4 27.2Q115.3 26.6 115.1 25.9Q114.9 25.2 114.6 24.5Q114.4 23.7 114.1 23.1ZM116.6 22.3L116.6 22.3L117.7 22.0Q117.9 22.7 118.2 23.4Q118.4 24.2 118.5 24.9Q118.7 25.6 118.8 26.1L118.8 26.1L117.5 26.5Q117.5 25.9 117.3 25.2Q117.1 24.5 117.0 23.7Q116.8 23.0 116.6 22.3ZM120.6 22.0L120.6 22.0L122.0 22.4Q121.7 23.6 121.2 24.8Q120.7 26.0 120.1 27.1Q119.5 28.3 118.8 29.3L118.8 29.3Q118.7 29.1 118.4 28.8Q118.2 28.6 118.0 28.5L118.0 28.5Q118.6 27.5 119.1 26.4Q119.6 25.4 120.0 24.2Q120.4 23.0 120.6 22.0ZM113.6 29.5L113.6 28.3L122.5 28.3L122.5 29.5L113.6 29.5ZM125.5 20.8L125.5 19.6L133.0 19.6L133.0 20.8L125.5 20.8ZM125.5 23.6L125.5 22.4L133.0 22.4L133.0 23.6L125.5 23.6ZM125.4 26.4L125.4 25.2L133.0 25.2L133.0 26.4L125.4 26.4ZM124.7 23.9L124.7 19.6L126.0 19.6L126.0 23.9Q126.0 24.6 126.0 25.4Q125.9 26.3 125.7 27.1Q125.5 27.9 125.2 28.7Q124.9 29.4 124.3 30.0L124.3 30.0Q124.2 29.9 124.0 29.8Q123.8 29.6 123.6 29.4Q123.5 29.3 123.3 29.2L123.3 29.2Q123.8 28.7 124.1 28.0Q124.4 27.4 124.5 26.7Q124.7 26.0 124.7 25.2Q124.7 24.5 124.7 23.9L124.7 23.9ZM132.5 28.4L132.5 19.6L133.8 19.6L133.8 28.4Q133.8 29.0 133.6 29.2Q133.5 29.5 133.2 29.7L133.2 29.7Q132.8 29.9 132.2 29.9Q131.7 29.9 130.8 29.9L130.8 29.9Q130.8 29.7 130.7 29.3Q130.6 28.9 130.4 28.7L130.4 28.7Q130.8 28.7 131.2 28.7Q131.5 28.7 131.8 28.7Q132.1 28.7 132.2 28.7L132.2 28.7Q132.3 28.7 132.4 28.6Q132.5 28.6 132.5 28.4L132.5 28.4ZM128.5 29.8L128.5 20.1L129.8 20.1L129.8 29.8L128.5 29.8ZM140.0 26.9L140.0 26.9L139.6 26.0Q140.4 25.8 140.8 25.4Q141.2 24.9 141.2 24.4L141.2 24.4L141.1 23.2L141.7 24.3Q141.6 24.4 141.4 24.5Q141.2 24.5 141.0 24.5L141.0 24.5Q140.6 24.5 140.3 24.3Q140.0 24.0 140.0 23.5L140.0 23.5Q140.0 23.0 140.3 22.8Q140.6 22.5 141.1 22.5L141.1 22.5Q141.7 22.5 142.0 22.9Q142.3 23.3 142.3 24.1L142.3 24.1Q142.3 25.1 141.7 25.8Q141.1 26.6 140.0 26.9ZM148.1 19.8L148.1 19.8L148.9 19.0Q149.2 19.2 149.6 19.6Q149.9 19.9 150.3 20.2Q150.6 20.5 150.8 20.8L150.8 20.8L149.9 21.7Q149.7 21.4 149.4 21.1Q149.1 20.7 148.7 20.4Q148.4 20.0 148.1 19.8ZM149.0 29.8L149.0 29.8L148.8 28.6L149.0 28.2L151.3 26.5Q151.4 26.7 151.5 27.1Q151.6 27.4 151.7 27.6L151.7 27.6Q150.9 28.2 150.4 28.6Q149.9 29.0 149.7 29.2Q149.4 29.5 149.3 29.6Q149.1 29.7 149.0 29.8ZM147.4 23.7L147.4 22.5L149.8 22.5L149.8 23.7L147.4 23.7ZM149.0 29.8L149.0 29.8Q149.0 29.7 148.9 29.5Q148.8 29.3 148.6 29.1Q148.5 28.9 148.4 28.7L148.4 28.7Q148.6 28.6 148.8 28.3Q149.0 28.1 149.0 27.6L149.0 27.6L149.0 22.5L150.2 22.5L150.2 28.6Q150.2 28.6 150.0 28.7Q149.9 28.8 149.6 29.0Q149.4 29.2 149.2 29.4Q149.0 29.7 149.0 29.8ZM153.0 26.6L153.0 25.7L156.8 25.7L156.8 26.6L153.0 26.6ZM151.5 20.6L151.5 19.6L158.2 19.6L158.2 20.6L151.5 20.6ZM151.9 22.0L151.9 21.1L157.8 21.1L157.8 22.0L151.9 22.0ZM151.2 23.5L151.2 22.6L158.6 22.6L158.6 23.5L151.2 23.5ZM152.9 28.2L152.9 27.3L156.8 27.3L156.8 28.2L152.9 28.2ZM152.0 30.0L152.0 24.1L156.8 24.1L156.8 25.0L153.2 25.0L153.2 30.0L152.0 30.0ZM156.5 28.7L156.5 24.1L157.7 24.1L157.7 28.7Q157.7 29.1 157.6 29.4Q157.5 29.6 157.2 29.8L157.2 29.8Q156.9 29.9 156.5 29.9Q156.0 30.0 155.4 30.0L155.4 30.0Q155.3 29.7 155.2 29.4Q155.1 29.1 155.0 28.9L155.0 28.9Q155.4 28.9 155.8 28.9Q156.2 28.9 156.3 28.9L156.3 28.9Q156.5 28.9 156.5 28.7L156.5 28.7ZM154.2 22.9L154.2 18.8L155.5 18.8L155.5 22.9L154.2 22.9ZM160.1 26.1L160.1 25.0L165.8 25.0L165.8 26.1L160.1 26.1ZM162.3 28.7L162.3 23.9L163.5 23.9L163.5 28.7L162.3 28.7ZM159.9 29.5L159.6 28.3Q160.4 28.2 161.5 28.0Q162.5 27.8 163.6 27.6Q164.8 27.5 165.9 27.3L165.9 27.3L166.0 28.4Q164.9 28.6 163.8 28.8Q162.7 29.0 161.7 29.2Q160.8 29.3 159.9 29.5L159.9 29.5ZM159.8 20.6L159.8 19.5L166.0 19.5L166.0 20.6L159.8 20.6ZM163.3 21.3L163.3 21.3L164.3 20.7Q164.6 21.1 164.9 21.6Q165.3 22.1 165.6 22.5Q165.8 23.0 166.0 23.3L166.0 23.3L165.0 23.9Q164.9 23.6 164.6 23.1Q164.3 22.7 164.0 22.2Q163.7 21.7 163.3 21.3ZM166.5 27.2L166.5 19.9L167.7 19.9L167.7 27.2L166.5 27.2ZM168.9 28.3L168.9 18.9L170.1 18.9L170.1 28.3Q170.1 28.8 170.0 29.1Q169.9 29.4 169.5 29.5L169.5 29.5Q169.2 29.7 168.7 29.7Q168.2 29.8 167.5 29.8L167.5 29.8Q167.5 29.5 167.3 29.2Q167.2 28.8 167.1 28.5L167.1 28.5Q167.6 28.5 168.0 28.5Q168.4 28.6 168.6 28.6L168.6 28.6Q168.7 28.6 168.8 28.5Q168.9 28.4 168.9 28.3L168.9 28.3ZM160.4 23.8L160.4 23.8Q160.4 23.7 160.3 23.5Q160.2 23.3 160.2 23.0Q160.1 22.8 160.0 22.6L160.0 22.6Q160.1 22.6 160.3 22.5Q160.4 22.3 160.6 22.1L160.6 22.1Q160.7 22.0 160.9 21.6Q161.1 21.3 161.3 20.8Q161.5 20.3 161.7 19.8L161.7 19.8L163.0 20.3Q162.7 20.8 162.4 21.3Q162.1 21.8 161.8 22.3Q161.4 22.8 161.1 23.2L161.1 23.2L161.1 23.2Q161.1 23.2 161.0 23.2Q160.9 23.3 160.8 23.4Q160.6 23.5 160.5 23.6Q160.4 23.7 160.4 23.8ZM160.4 23.8L160.4 23.8L160.4 22.9L161.0 22.5L164.7 22.3Q164.9 22.5 165.0 22.8Q165.2 23.1 165.3 23.3L165.3 23.3Q164.1 23.4 163.3 23.4Q162.5 23.5 161.9 23.6Q161.4 23.6 161.1 23.6Q160.8 23.7 160.7 23.7Q160.5 23.8 160.4 23.8Z "/><mask id="satori_om-id-1-1"><rect x="87" y="34" width="106" height="30" fill="#fff"/></mask><path fill="white" d="M92.9 58.8L89.1 58.8L89.1 37.7L102.6 37.7L102.6 40.9L92.9 40.9L92.9 46.6L101.7 46.6L101.7 49.8L92.9 49.8L92.9 58.8ZM105.9 37.7L109.6 37.7L109.6 58.8L105.9 58.8L105.9 37.7ZM118.0 59.1L118.0 59.1Q116.5 59.1 115.3 58.6Q114.1 58.0 113.4 57.0Q112.7 55.9 112.7 54.4L112.7 54.4Q112.7 53.0 113.2 52.2Q113.7 51.3 114.6 50.8Q115.4 50.2 116.5 50.0Q117.6 49.7 118.7 49.6L118.7 49.6Q120.1 49.4 121.0 49.3Q121.8 49.2 122.2 48.9Q122.6 48.7 122.6 48.1L122.6 48.1L122.6 48.1Q122.6 46.9 121.9 46.3Q121.3 45.6 120.0 45.6L120.0 45.6Q118.6 45.6 117.8 46.2Q117.0 46.8 116.7 47.6L116.7 47.6L113.2 47.1Q113.6 45.7 114.6 44.7Q115.5 43.8 116.9 43.3Q118.3 42.8 119.9 42.8L119.9 42.8Q121.1 42.8 122.2 43.0Q123.3 43.3 124.3 43.9Q125.2 44.5 125.8 45.6Q126.4 46.6 126.4 48.2L126.4 48.2L126.4 58.8L122.8 58.8L122.8 56.6L122.7 56.6Q122.3 57.3 121.7 57.9Q121.1 58.4 120.2 58.8Q119.2 59.1 118.0 59.1ZM119.0 56.4L119.0 56.4Q120.1 56.4 120.9 55.9Q121.7 55.5 122.2 54.7Q122.6 54.0 122.6 53.1L122.6 53.1L122.6 51.3Q122.5 51.4 122.1 51.5Q121.6 51.7 121.1 51.8Q120.6 51.8 120.1 51.9Q119.6 52.0 119.2 52.0L119.2 52.0Q118.4 52.2 117.7 52.4Q117.1 52.7 116.7 53.1Q116.3 53.6 116.3 54.3L116.3 54.3Q116.3 55.3 117.1 55.9Q117.8 56.4 119.0 56.4ZM128.9 43.0L138.0 43.0L138.0 45.9L128.9 45.9L128.9 43.0ZM131.2 54.7L131.2 39.2L134.9 39.2L134.9 54.0Q134.9 54.8 135.1 55.2Q135.4 55.6 135.7 55.7Q136.1 55.9 136.6 55.9L136.6 55.9Q136.9 55.9 137.2 55.8Q137.5 55.8 137.7 55.7L137.7 55.7L138.3 58.7Q138.0 58.8 137.5 58.9Q136.9 59.0 136.1 59.0L136.1 59.0Q134.7 59.1 133.6 58.6Q132.5 58.1 131.8 57.1Q131.2 56.1 131.2 54.7L131.2 54.7ZM144.9 49.5L144.9 49.5L144.9 58.8L141.1 58.8L141.1 37.7L144.8 37.7L144.8 45.7L145.0 45.7Q145.5 44.3 146.7 43.6Q147.9 42.8 149.7 42.8L149.7 42.8Q151.3 42.8 152.5 43.5Q153.8 44.2 154.4 45.5Q155.1 46.8 155.1 48.7L155.1 48.7L155.1 58.8L151.4 58.8L151.4 49.3Q151.4 47.7 150.6 46.8Q149.8 45.9 148.3 45.9L148.3 45.9Q147.3 45.9 146.5 46.4Q145.7 46.8 145.3 47.6Q144.9 48.4 144.9 49.5ZM169.0 52.2L169.0 52.2L169.0 43.0L172.7 43.0L172.7 58.8L169.1 58.8L169.1 56.0L168.9 56.0Q168.4 57.3 167.2 58.2Q166.0 59.0 164.2 59.0L164.2 59.0Q162.6 59.0 161.4 58.3Q160.3 57.6 159.6 56.3Q158.9 55.0 158.9 53.1L158.9 53.1L158.9 43.0L162.6 43.0L162.6 52.5Q162.6 54.0 163.5 54.9Q164.3 55.8 165.6 55.8L165.6 55.8Q166.5 55.8 167.2 55.4Q168.0 55.0 168.5 54.2Q169.0 53.4 169.0 52.2ZM180.4 58.8L176.7 58.8L176.7 37.7L180.4 37.7L180.4 45.6L180.6 45.6Q180.9 45.0 181.4 44.4Q181.9 43.7 182.8 43.2Q183.7 42.8 185.1 42.8L185.1 42.8Q187.0 42.8 188.4 43.7Q189.9 44.6 190.8 46.5Q191.7 48.3 191.7 50.9L191.7 50.9Q191.7 53.5 190.8 55.3Q189.9 57.2 188.5 58.1Q187.0 59.1 185.1 59.1L185.1 59.1Q183.8 59.1 182.9 58.6Q182.0 58.2 181.4 57.5Q180.9 56.9 180.6 56.3L180.6 56.3L180.4 56.3L180.4 58.8ZM180.4 50.9L180.4 50.9Q180.4 52.4 180.8 53.6Q181.3 54.7 182.1 55.4Q182.9 56.0 184.1 56.0L184.1 56.0Q185.3 56.0 186.2 55.4Q187.0 54.7 187.4 53.5Q187.9 52.4 187.9 50.9L187.9 50.9Q187.9 49.4 187.4 48.3Q187.0 47.1 186.2 46.5Q185.3 45.8 184.1 45.8L184.1 45.8Q182.9 45.8 182.1 46.5Q181.2 47.1 180.8 48.2Q180.4 49.4 180.4 50.9Z "/></svg>