<svg width="240" height="80" viewBox="0 0 240 80" xmlns="http://www.w3.org/2000/svg"><defs><clipPath id="satori_bc-id"><path x="0" y="0" width="240" height="80" d="M16,0 h208 a16,16 0 0 1 16,16 v48 a16,16 0 0 1 -16,16 h-208 a16,16 0 0 1 -16,-16 v-48 a16,16 0 0 1 16,-16"/></clipPath></defs><mask id="satori_om-id"><rect x="2" y="2" width="236" height="76" fill="#fff"/><path width="240" height="80" fill="none" stroke="#000" stroke-width="4" d="M4.686,4.686 A16,16 0 0 1 16,0 h208 a16,16 0 0 1 16,16 v48 a16,16 0 0 1 -16,16 h-208 a16,16 0 0 1 -16,-16 v-48 A16,16 0 0 1 4.686,4.686"/></mask><path x="0" y="0" width="240" height="80" fill="black" d="M16,0 h208 a16,16 0 0 1 16,16 v48 a16,16 0 0 1 -16,16 h-208 a16,16 0 0 1 -16,-16 v-48 a16,16 0 0 1 16,-16"/><path width="240" height="80" clip-path="url(#satori_bc-id)" fill="none" stroke="#888A85" stroke-width="4" d="M4.686,4.686 A16,16 0 0 1 16,0 h208 a16,16 0 0 1 16,16 v48 a16,16 0 0 1 -16,16 h-208 a16,16 0 0 1 -16,-16 v-48 A16,16 0 0 1 4.686,4.686"/><clipPath id="satori_cp-id-0"><rect x="34" y="22" width="37" height="36"/></clipPath><mask id="satori_om-id-0"><rect x="34" y="22" width="37" height="36" fill="#fff"/></mask><image x="34" y="22" width="37" height="36" href="data:image/svg+xml;utf8,%3Csvg  version=%221.1%22 xmlns=%22http://www.w3.org/2000/svg%22 width=%2237.6228125%22 height=%2236%22 viewBox=%220 0 66.885 64%22%3E%3Cg transform=%22translate(-30.558 -32)%22%3E%3Cg transform=%22matrix(1.7016 0 0 1.7016 -237.69 -115.36)%22 fill=%22white%22%3E%3Ccircle cx=%22166.69%22 cy=%2295.647%22 r=%229.0478%22 stroke-width=%22.58767%22%3E%3C/circle%3E%3Crect x=%22158.41%22 y=%22107.8%22 width=%2216.412%22 height=%2216.412%22 rx=%224.3765%22 ry=%224.3765%22 stroke-width=%22.58767%22%3E%3C/rect%3E%3Cpath transform=%22matrix(.9259 .53457 .53457 -.9259 99.826 110.69)%22 d=%22m69.514 58.833h-1.7806-10.247a2.4441 2.4441 60 0 1-2.1167-3.6662l6.0139-10.416a2.4441 2.4441 2.522e-7 0 1 4.2333 0l6.0139 10.416a2.4441 2.4441 120 0 1-2.1167 3.6662z%22 stroke-width=%22.55348%22%3E%3C/path%3E%3Cpath d=%22m194.99 116.11c0 0.87946-0.70801 1.5875-1.5875 1.5875h-12.7c-0.87946 0-1.5875-0.70802-1.5875-1.5875s0.70802-1.5875 1.5875-1.5875h12.7c0.87946 0 1.5875 0.70801 1.5875 1.5875zm-7.9375-7.9375c0.87946 0 1.5875 0.70802 1.5875 1.5875v12.7c0 0.87946-0.70802 1.5875-1.5875 1.5875-0.87947 0-1.5875-0.70802-1.5875-1.5875v-12.7c0-0.87947 0.70802-1.5875 1.5875-1.5875z%22 stroke-width=%225.8767%22%3E%3C/path%3E%3C/g%3E%3C/g%3E%3C/svg%3E" preserveAspectRatio="none" clip-path="url(#satori_cp-id-0)" mask="url(#satori_om-id-0)"/><mask id="satori_om-id-0-0"><rect x="34" y="22" width="0" height="36" fill="#fff"/></mask><mask id="satori_om-id-0-0-0"><rect x="34" y="22" width="0" height="36" fill="#fff"/></mask><mask id="satori_om-id-0-0-0-0"><rect x="34" y="22" width="0" height="36" fill="#fff"/></mask><mask id="satori_om-id-0-0-0-1"><rect x="34" y="22" width="0" height="36" fill="#fff"/></mask><mask id="satori_om-id-0-0-0-2"><rect x="34" y="22" width="0" height="36" fill="#fff"/></mask><mask id="satori_om-id-0-0-0-3"><rect x="34" y="22" width="0" height="36" fill="#fff"/></mask><mask id="satori_om-id-1"><rect x="87" y="17" width="106" height="46" fill="#fff"/></mask><path fill="white" d="M90.8 29.1L90.8 29.1L87.9 29.1L87.9 20.3L90.9 20.3Q92.2 20.3 93.1 20.9Q94.0 21.4 94.6 22.4Q95.1 23.3 95.1 24.7L95.1 24.7Q95.1 26.1 94.5 27.0Q94.0 28.0 93.1 28.5Q92.1 29.1 90.8 29.1ZM89.4 21.7L89.4 27.7L90.7 27.7Q91.7 27.7 92.3 27.4Q92.9 27.0 93.2 26.4Q93.5 25.7 93.5 24.7L93.5 24.7Q93.5 23.7 93.2 23.0Q92.9 22.4 92.3 22.0Q91.7 21.7 90.8 21.7L90.8 21.7L89.4 21.7ZM96.6 20.3L98.1 20.3L98.1 29.1L96.6 29.1L96.6 20.3ZM106.1 22.7L104.6 22.7Q104.5 22.2 104.1 21.9Q103.7 21.6 103.0 21.6L103.0 21.6Q102.5 21.6 102.1 21.7Q101.7 21.9 101.6 22.1Q101.4 22.4 101.4 22.7L101.4 22.7Q101.4 23.0 101.5 23.2Q101.6 23.4 101.8 23.5Q102.1 23.7 102.3 23.7Q102.6 23.8 102.9 23.9L102.9 23.9L103.7 24.1Q104.2 24.2 104.6 24.4Q105.1 24.6 105.4 24.9Q105.8 25.2 106.0 25.6Q106.2 26.1 106.2 26.6L106.2 26.6Q106.2 27.4 105.8 28.0Q105.5 28.6 104.7 28.9Q104.0 29.2 102.9 29.2L102.9 29.2Q101.9 29.2 101.2 28.9Q100.4 28.6 100.0 28.0Q99.6 27.4 99.5 26.5L99.5 26.5L101.1 26.5Q101.1 27.0 101.4 27.3Q101.6 27.6 102.0 27.7Q102.4 27.9 102.9 27.9L102.9 27.9Q103.4 27.9 103.8 27.7Q104.2 27.5 104.4 27.3Q104.7 27.0 104.7 26.6L104.7 26.6Q104.7 26.3 104.5 26.0Q104.3 25.8 103.9 25.7Q103.6 25.5 103.1 25.4L103.1 25.4L102.1 25.1Q101.0 24.9 100.4 24.3Q99.8 23.7 99.8 22.8L99.8 22.8Q99.8 22.0 100.2 21.4Q100.6 20.9 101.3 20.5Q102.1 20.2 103.0 20.2L103.0 20.2Q103.9 20.2 104.6 20.5Q105.3 20.9 105.7 21.4Q106.1 22.0 106.1 22.7L106.1 22.7ZM109.2 29.1L107.6 29.1L107.6 20.3L110.9 20.3Q111.9 20.3 112.6 20.7Q113.3 21.1 113.6 21.7Q114.0 22.4 114.0 23.2L114.0 23.2Q114.0 24.1 113.6 24.7Q113.3 25.4 112.6 25.8Q111.9 26.1 110.9 26.1L110.9 26.1L108.7 26.1L108.7 24.8L110.7 24.8Q111.3 24.8 111.6 24.6Q112.0 24.4 112.2 24.1Q112.4 23.7 112.4 23.2L112.4 23.2Q112.4 22.8 112.2 22.4Q112.0 22.1 111.6 21.9Q111.3 21.7 110.7 21.7L110.7 21.7L109.2 21.7L109.2 29.1ZM123.2 24.7L123.2 24.7Q123.2 26.1 122.6 27.1Q122.1 28.1 121.2 28.7Q120.3 29.2 119.2 29.2L119.2 29.2Q118.0 29.2 117.1 28.7Q116.2 28.1 115.7 27.1Q115.1 26.1 115.1 24.7L115.1 24.7Q115.1 23.3 115.7 22.3Q116.2 21.3 117.1 20.8Q118.0 20.2 119.2 20.2L119.2 20.2Q120.3 20.2 121.2 20.8Q122.1 21.3 122.6 22.3Q123.2 23.3 123.2 24.7ZM121.6 24.7L121.6 24.7Q121.6 23.7 121.3 23.0Q121.0 22.3 120.4 22.0Q119.9 21.6 119.2 21.6L119.2 21.6Q118.4 21.6 117.9 22.0Q117.3 22.3 117.0 23.0Q116.7 23.7 116.7 24.7L116.7 24.7Q116.7 25.7 117.0 26.4Q117.3 27.1 117.9 27.4Q118.4 27.8 119.2 27.8L119.2 27.8Q119.9 27.8 120.4 27.4Q121.0 27.1 121.3 26.4Q121.6 25.7 121.6 24.7ZM130.3 20.3L131.8 20.3L131.8 29.1L130.4 29.1L126.3 23.1L126.2 23.1L126.2 29.1L124.7 29.1L124.7 20.3L126.1 20.3L130.2 26.3L130.3 26.3L130.3 20.3ZM133.6 20.3L135.1 20.3L135.1 29.1L133.6 29.1L133.6 20.3ZM140.4 29.1L136.8 29.1L136.8 20.3L140.2 20.3Q141.1 20.3 141.8 20.6Q142.4 20.9 142.7 21.4Q143.0 22.0 143.0 22.6L143.0 22.6Q143.0 23.1 142.8 23.5Q142.6 23.9 142.3 24.1Q141.9 24.4 141.5 24.5L141.5 24.5L141.5 24.6Q142.0 24.6 142.4 24.8Q142.8 25.1 143.1 25.6Q143.4 26.0 143.4 26.7L143.4 26.7Q143.4 27.4 143.0 27.9Q142.7 28.5 142.0 28.8Q141.4 29.1 140.4 29.1L140.4 29.1ZM138.4 25.2L138.4 27.8L140.1 27.8Q141.0 27.8 141.4 27.4Q141.8 27.1 141.8 26.6L141.8 26.6Q141.8 26.2 141.6 25.9Q141.4 25.6 141.0 25.4Q140.7 25.2 140.2 25.2L140.2 25.2L138.4 25.2ZM138.4 21.6L138.4 24.1L140.0 24.1Q140.4 24.1 140.7 23.9Q141.1 23.8 141.2 23.5Q141.4 23.2 141.4 22.8L141.4 22.8Q141.4 22.3 141.1 22.0Q140.7 21.6 140.0 21.6L140.0 21.6L138.4 21.6ZM150.2 29.1L144.7 29.1L144.7 20.3L146.3 20.3L146.3 27.7L150.2 27.7L150.2 29.1ZM157.2 29.1L151.5 29.1L151.5 20.3L157.2 20.3L157.2 21.7L153.1 21.7L153.1 24.0L156.9 24.0L156.9 25.4L153.1 25.4L153.1 27.7L157.2 27.7L157.2 29.1Z M168.1 22.7L166.5 22.7Q166.5 22.2 166.0 21.9Q165.6 21.6 164.9 21.6L164.9 21.6Q164.4 21.6 164.0 21.7Q163.7 21.9 163.5 22.1Q163.3 22.4 163.3 22.7L163.3 22.7Q163.3 23.0 163.4 23.2Q163.6 23.4 163.8 23.5Q164.0 23.7 164.3 23.7Q164.5 23.8 164.8 23.9L164.8 23.9L165.6 24.1Q166.1 24.2 166.6 24.4Q167.0 24.6 167.4 24.9Q167.8 25.2 168.0 25.6Q168.2 26.1 168.2 26.6L168.2 26.6Q168.2 27.4 167.8 28.0Q167.4 28.6 166.7 28.9Q165.9 29.2 164.9 29.2L164.9 29.2Q163.9 29.2 163.1 28.9Q162.4 28.6 161.9 28.0Q161.5 27.4 161.5 26.5L161.5 26.5L163.0 26.5Q163.1 27.0 163.3 27.3Q163.6 27.6 164.0 27.7Q164.4 27.9 164.9 27.9L164.9 27.9Q165.4 27.9 165.8 27.7Q166.2 27.5 166.4 27.3Q166.6 27.0 166.6 26.6L166.6 26.6Q166.6 26.3 166.4 26.0Q166.2 25.8 165.9 25.7Q165.5 25.5 165.0 25.4L165.0 25.4L164.0 25.1Q163.0 24.9 162.3 24.3Q161.7 23.7 161.7 22.8L161.7 22.8Q161.7 22.0 162.1 21.4Q162.6 20.9 163.3 20.5Q164.0 20.2 164.9 20.2L164.9 20.2Q165.8 20.2 166.5 20.5Q167.2 20.9 167.7 21.4Q168.1 22.0 168.1 22.7L168.1 22.7ZM175.1 25.9L175.1 20.3L176.7 20.3L176.7 26.0Q176.7 27.0 176.2 27.7Q175.8 28.4 175.0 28.8Q174.2 29.2 173.1 29.2L173.1 29.2Q172.1 29.2 171.3 28.8Q170.5 28.4 170.0 27.7Q169.6 27.0 169.6 26.0L169.6 26.0L169.6 20.3L171.2 20.3L171.2 25.9Q171.2 26.5 171.4 26.9Q171.7 27.3 172.1 27.6Q172.5 27.8 173.1 27.8L173.1 27.8Q173.7 27.8 174.2 27.6Q174.6 27.3 174.9 26.9Q175.1 26.5 175.1 25.9L175.1 25.9ZM180.0 29.1L178.4 29.1L178.4 20.3L181.7 20.3Q182.7 20.3 183.4 20.7Q184.0 21.0 184.4 21.7Q184.7 22.3 184.7 23.1L184.7 23.1Q184.7 24.0 184.4 24.6Q184.0 25.2 183.3 25.5Q182.7 25.9 181.6 25.9L181.6 25.9L179.3 25.9L179.3 24.6L181.4 24.6Q182.0 24.6 182.4 24.4Q182.8 24.2 183.0 23.9Q183.1 23.6 183.1 23.1L183.1 23.1Q183.1 22.7 182.9 22.3Q182.8 22.0 182.4 21.8Q182.0 21.7 181.4 21.7L181.4 21.7L180.0 21.7L180.0 29.1ZM181.2 25.1L182.9 25.1L185.1 29.1L183.3 29.1L181.2 25.1Z "/><mask id="satori_om-id-1-1"><rect x="87" y="33" width="106" height="30" fill="#fff"/></mask><path fill="white" d="M92.9 57.8L89.1 57.8L89.1 36.7L102.6 36.7L102.6 39.9L92.9 39.9L92.9 45.6L101.7 45.6L101.7 48.8L92.9 48.8L92.9 57.8ZM105.9 36.7L109.6 36.7L109.6 57.8L105.9 57.8L105.9 36.7ZM118.0 58.1L118.0 58.1Q116.5 58.1 115.3 57.6Q114.1 57.0 113.4 56.0Q112.7 54.9 112.7 53.4L112.7 53.4Q112.7 52.0 113.2 51.2Q113.7 50.3 114.6 49.8Q115.4 49.2 116.5 49.0Q117.6 48.7 118.7 48.6L118.7 48.6Q120.1 48.4 121.0 48.3Q121.8 48.2 122.2 47.9Q122.6 47.7 122.6 47.1L122.6 47.1L122.6 47.1Q122.6 45.9 121.9 45.3Q121.3 44.6 120.0 44.6L120.0 44.6Q118.6 44.6 117.8 45.2Q117.0 45.8 116.7 46.6L116.7 46.6L113.2 46.1Q113.6 44.7 114.6 43.7Q115.5 42.8 116.9 42.3Q118.3 41.8 119.9 41.8L119.9 41.8Q121.1 41.8 122.2 42.0Q123.3 42.3 124.3 42.9Q125.2 43.5 125.8 44.6Q126.4 45.6 126.4 47.2L126.4 47.2L126.4 57.8L122.8 57.8L122.8 55.6L122.7 55.6Q122.3 56.3 121.7 56.9Q121.1 57.4 120.2 57.8Q119.2 58.1 118.0 58.1ZM119.0 55.4L119.0 55.4Q120.1 55.4 120.9 54.9Q121.7 54.5 122.2 53.7Q122.6 53.0 122.6 52.1L122.6 52.1L122.6 50.3Q122.5 50.4 122.1 50.5Q121.6 50.7 121.1 50.8Q120.6 50.8 120.1 50.9Q119.6 51.0 119.2 51.0L119.2 51.0Q118.4 51.2 117.7 51.4Q117.1 51.7 116.7 52.1Q116.3 52.6 116.3 53.3L116.3 53.3Q116.3 54.3 117.1 54.9Q117.8 55.4 119.0 55.4ZM128.9 42.0L138.0 42.0L138.0 44.9L128.9 44.9L128.9 42.0ZM131.2 53.7L131.2 38.2L134.9 38.2L134.9 53.0Q134.9 53.8 135.1 54.2Q135.4 54.6 135.7 54.7Q136.1 54.9 136.6 54.9L136.6 54.9Q136.9 54.9 137.2 54.8Q137.5 54.8 137.7 54.7L137.7 54.7L138.3 57.7Q138.0 57.8 137.5 57.9Q136.9 58.0 136.1 58.0L136.1 58.0Q134.7 58.1 133.6 57.6Q132.5 57.1 131.8 56.1Q131.2 55.1 131.2 53.7L131.2 53.7ZM144.9 48.5L144.9 48.5L144.9 57.8L141.1 57.8L141.1 36.7L144.8 36.7L144.8 44.7L145.0 44.7Q145.5 43.3 146.7 42.6Q147.9 41.8 149.7 41.8L149.7 41.8Q151.3 41.8 152.5 42.5Q153.8 43.2 154.4 44.5Q155.1 45.8 155.1 47.7L155.1 47.7L155.1 57.8L151.4 57.8L151.4 48.3Q151.4 46.7 150.6 45.8Q149.8 44.9 148.3 44.9L148.3 44.9Q147.3 44.9 146.5 45.4Q145.7 45.8 145.3 46.6Q144.9 47.4 144.9 48.5ZM169.0 51.2L169.0 51.2L169.0 42.0L172.7 42.0L172.7 57.8L169.1 57.8L169.1 55.0L168.9 55.0Q168.4 56.3 167.2 57.2Q166.0 58.0 164.2 58.0L164.2 58.0Q162.6 58.0 161.4 57.3Q160.3 56.6 159.6 55.3Q158.9 54.0 158.9 52.1L158.9 52.1L158.9 42.0L162.6 42.0L162.6 51.5Q162.6 53.0 163.5 53.9Q164.3 54.8 165.6 54.8L165.6 54.8Q166.5 54.8 167.2 54.4Q168.0 54.0 168.5 53.2Q169.0 52.4 169.0 51.2ZM180.4 57.8L176.7 57.8L176.7 36.7L180.4 36.7L180.4 44.6L180.6 44.6Q180.9 44.0 181.4 43.4Q181.9 42.7 182.8 42.2Q183.7 41.8 185.1 41.8L185.1 41.8Q187.0 41.8 188.4 42.7Q189.9 43.6 190.8 45.5Q191.7 47.3 191.7 49.9L191.7 49.9Q191.7 52.5 190.8 54.3Q189.9 56.2 188.5 57.1Q187.0 58.1 185.1 58.1L185.1 58.1Q183.8 58.1 182.9 57.6Q182.0 57.2 181.4 56.5Q180.9 55.9 180.6 55.3L180.6 55.3L180.4 55.3L180.4 57.8ZM180.4 49.9L180.4 49.9Q180.4 51.4 180.8 52.6Q181.3 53.7 182.1 54.4Q182.9 55.0 184.1 55.0L184.1 55.0Q185.3 55.0 186.2 54.4Q187.0 53.7 187.4 52.5Q187.9 51.4 187.9 49.9L187.9 49.9Q187.9 48.4 187.4 47.3Q187.0 46.1 186.2 45.5Q185.3 44.8 184.1 44.8L184.1 44.8Q182.9 44.8 182.1 45.5Q181.2 46.1 180.8 47.2Q180.4 48.4 180.4 49.9Z "/></svg>