<svg width="240" height="80" viewBox="0 0 240 80" xmlns="http://www.w3.org/2000/svg"><defs><clipPath id="satori_bc-id"><path x="0" y="0" width="240" height="80" d="M16,0 h208 a16,16 0 0 1 16,16 v48 a16,16 0 0 1 -16,16 h-208 a16,16 0 0 1 -16,-16 v-48 a16,16 0 0 1 16,-16"/></clipPath></defs><mask id="satori_om-id"><rect x="2" y="2" width="236" height="76" fill="#fff"/><path width="240" height="80" fill="none" stroke="#000" stroke-width="4" d="M4.686,4.686 A16,16 0 0 1 16,0 h208 a16,16 0 0 1 16,16 v48 a16,16 0 0 1 -16,16 h-208 a16,16 0 0 1 -16,-16 v-48 A16,16 0 0 1 4.686,4.686"/></mask><path x="0" y="0" width="240" height="80" fill="black" d="M16,0 h208 a16,16 0 0 1 16,16 v48 a16,16 0 0 1 -16,16 h-208 a16,16 0 0 1 -16,-16 v-48 a16,16 0 0 1 16,-16"/><path width="240" height="80" clip-path="url(#satori_bc-id)" fill="none" stroke="#888A85" stroke-width="4" d="M4.686,4.686 A16,16 0 0 1 16,0 h208 a16,16 0 0 1 16,16 v48 a16,16 0 0 1 -16,16 h-208 a16,16 0 0 1 -16,-16 v-48 A16,16 0 0 1 4.686,4.686"/><clipPath id="satori_cp-id-0"><rect x="34" y="22" width="37" height="36"/></clipPath><mask id="satori_om-id-0"><rect x="34" y="22" width="37" height="36" fill="#fff"/></mask><image x="34" y="22" width="37" height="36" href="data:image/svg+xml;utf8,%3Csvg  version=%221.1%22 xmlns=%22http://www.w3.org/2000/svg%22 width=%2237.6228125%22 height=%2236%22 viewBox=%220 0 66.885 64%22%3E%3Cg transform=%22translate(-30.558 -32)%22%3E%3Cg transform=%22matrix(1.7016 0 0 1.7016 -237.69 -115.36)%22 fill=%22white%22%3E%3Ccircle cx=%22166.69%22 cy=%2295.647%22 r=%229.0478%22 stroke-width=%22.58767%22%3E%3C/circle%3E%3Crect x=%22158.41%22 y=%22107.8%22 width=%2216.412%22 height=%2216.412%22 rx=%224.3765%22 ry=%224.3765%22 stroke-width=%22.58767%22%3E%3C/rect%3E%3Cpath transform=%22matrix(.9259 .53457 .53457 -.9259 99.826 110.69)%22 d=%22m69.514 58.833h-1.7806-10.247a2.4441 2.4441 60 0 1-2.1167-3.6662l6.0139-10.416a2.4441 2.4441 2.522e-7 0 1 4.2333 0l6.0139 10.416a2.4441 2.4441 120 0 1-2.1167 3.6662z%22 stroke-width=%22.55348%22%3E%3C/path%3E%3Cpath d=%22m194.99 116.11c0 0.87946-0.70801 1.5875-1.5875 1.5875h-12.7c-0.87946 0-1.5875-0.70802-1.5875-1.5875s0.70802-1.5875 1.5875-1.5875h12.7c0.87946 0 1.5875 0.70801 1.5875 1.5875zm-7.9375-7.9375c0.87946 0 1.5875 0.70802 1.5875 1.5875v12.7c0 0.87946-0.70802 1.5875-1.5875 1.5875-0.87947 0-1.5875-0.70802-1.5875-1.5875v-12.7c0-0.87947 0.70802-1.5875 1.5875-1.5875z%22 stroke-width=%225.8767%22%3E%3C/path%3E%3C/g%3E%3C/g%3E%3C/svg%3E" preserveAspectRatio="none" clip-path="url(#satori_cp-id-0)" mask="url(#satori_om-id-0)"/><mask id="satori_om-id-0-0"><rect x="34" y="22" width="0" height="36" fill="#fff"/></mask><mask id="satori_om-id-0-0-0"><rect x="34" y="22" width="0" height="36" fill="#fff"/></mask><mask id="satori_om-id-0-0-0-0"><rect x="34" y="22" width="0" height="36" fill="#fff"/></mask><mask id="satori_om-id-0-0-0-1"><rect x="34" y="22" width="0" height="36" fill="#fff"/></mask><mask id="satori_om-id-0-0-0-2"><rect x="34" y="22" width="0" height="36" fill="#fff"/></mask><mask id="satori_om-id-0-0-0-3"><rect x="34" y="22" width="0" height="36" fill="#fff"/></mask><mask id="satori_om-id-1"><rect x="87" y="17" width="106" height="46" fill="#fff"/></mask><path fill="white" d="M95.3 23.6L95.3 23.6L93.7 23.6Q93.7 23.2 93.5 22.9Q93.3 22.6 93.0 22.4Q92.8 22.2 92.4 22.0Q92.1 21.9 91.7 21.9L91.7 21.9Q91.0 21.9 90.4 22.3Q89.9 22.6 89.5 23.3Q89.2 24.0 89.2 25L89.2 25Q89.2 26.0 89.5 26.7Q89.9 27.4 90.4 27.7Q91.0 28.1 91.7 28.1L91.7 28.1Q92.0 28.1 92.4 28.0Q92.7 27.9 93.0 27.7Q93.3 27.4 93.5 27.1Q93.7 26.8 93.7 26.5L93.7 26.5L95.3 26.5Q95.2 27.1 94.9 27.6Q94.6 28.2 94.2 28.6Q93.7 29.0 93.1 29.3Q92.4 29.5 91.6 29.5L91.6 29.5Q90.5 29.5 89.6 29.0Q88.7 28.4 88.2 27.4Q87.6 26.4 87.6 25L87.6 25Q87.6 23.6 88.2 22.6Q88.7 21.6 89.6 21.0Q90.5 20.5 91.6 20.5L91.6 20.5Q92.4 20.5 93.0 20.7Q93.6 20.9 94.1 21.3Q94.6 21.7 94.9 22.3Q95.2 22.9 95.3 23.6ZM104.6 25L104.6 25Q104.6 26.4 104.1 27.4Q103.5 28.4 102.6 29.0Q101.7 29.5 100.6 29.5L100.6 29.5Q99.4 29.5 98.5 28.9Q97.6 28.4 97.1 27.4Q96.6 26.4 96.6 25L96.6 25Q96.6 23.6 97.1 22.6Q97.6 21.6 98.5 21.0Q99.4 20.5 100.6 20.5L100.6 20.5Q101.7 20.5 102.6 21.0Q103.5 21.6 104.1 22.6Q104.6 23.6 104.6 25ZM103.0 25L103.0 25Q103.0 24.0 102.7 23.3Q102.4 22.6 101.8 22.3Q101.3 21.9 100.6 21.9L100.6 21.9Q99.9 21.9 99.3 22.3Q98.8 22.6 98.5 23.3Q98.2 24.0 98.2 25L98.2 25Q98.2 26.0 98.5 26.7Q98.8 27.4 99.3 27.7Q99.9 28.1 100.6 28.1L100.6 28.1Q101.3 28.1 101.8 27.7Q102.4 27.4 102.7 26.7Q103.0 26.0 103.0 25ZM111.7 20.6L113.3 20.6L113.3 29.4L111.8 29.4L107.7 23.4L107.7 23.4L107.7 29.4L106.1 29.4L106.1 20.6L107.5 20.6L111.6 26.6L111.7 26.6L111.7 20.6ZM121.2 23.0L119.7 23.0Q119.7 22.5 119.2 22.2Q118.8 21.9 118.1 21.9L118.1 21.9Q117.6 21.9 117.2 22.0Q116.9 22.2 116.7 22.4Q116.5 22.7 116.5 23.0L116.5 23.0Q116.5 23.3 116.6 23.5Q116.7 23.7 117.0 23.8Q117.2 23.9 117.4 24.0Q117.7 24.1 118.0 24.2L118.0 24.2L118.8 24.4Q119.3 24.5 119.7 24.7Q120.2 24.9 120.6 25.2Q120.9 25.5 121.1 25.9Q121.4 26.3 121.4 26.9L121.4 26.9Q121.4 27.7 121.0 28.3Q120.6 28.8 119.8 29.2Q119.1 29.5 118.0 29.5L118.0 29.5Q117.0 29.5 116.3 29.2Q115.5 28.9 115.1 28.3Q114.7 27.7 114.7 26.8L114.7 26.8L116.2 26.8Q116.2 27.2 116.5 27.5Q116.7 27.8 117.1 28.0Q117.5 28.1 118.0 28.1L118.0 28.1Q118.5 28.1 118.9 28.0Q119.3 27.8 119.5 27.6Q119.8 27.3 119.8 26.9L119.8 26.9Q119.8 26.6 119.6 26.3Q119.4 26.1 119.0 26.0Q118.7 25.8 118.2 25.7L118.2 25.7L117.2 25.4Q116.1 25.2 115.5 24.6Q114.9 24.0 114.9 23.1L114.9 23.1Q114.9 22.3 115.3 21.7Q115.7 21.2 116.5 20.8Q117.2 20.5 118.1 20.5L118.1 20.5Q119.0 20.5 119.7 20.8Q120.4 21.2 120.8 21.7Q121.2 22.3 121.2 23.0L121.2 23.0ZM122.8 20.6L124.3 20.6L124.3 29.4L122.8 29.4L122.8 20.6ZM124.1 19.8L123.0 19.8L123.9 17.8L125.4 17.8L124.1 19.8ZM133.5 23.4L131.9 23.4Q131.8 23.1 131.6 22.8Q131.4 22.5 131.2 22.3Q130.9 22.1 130.6 22.0Q130.2 21.9 129.9 21.9L129.9 21.9Q129.2 21.9 128.6 22.3Q128.1 22.6 127.7 23.3Q127.4 24.0 127.4 25.0L127.4 25.0Q127.4 26.0 127.7 26.7Q128.0 27.4 128.6 27.7Q129.2 28.1 129.9 28.1L129.9 28.1Q130.6 28.1 131.0 27.8Q131.5 27.6 131.8 27.1Q132.1 26.6 132.1 26.0L132.1 26.0L132.4 26.0L130.0 26.0L130.0 24.8L133.6 24.8L133.6 25.8Q133.6 27.0 133.1 27.8Q132.6 28.6 131.8 29.0Q131.0 29.5 129.9 29.5L129.9 29.5Q128.7 29.5 127.8 28.9Q126.9 28.4 126.3 27.4Q125.8 26.4 125.8 25.0L125.8 25.0Q125.8 24.0 126.1 23.1Q126.4 22.3 127.0 21.7Q127.5 21.1 128.3 20.8Q129.0 20.5 129.8 20.5L129.8 20.5Q130.6 20.5 131.2 20.7Q131.8 20.9 132.3 21.3Q132.8 21.7 133.1 22.2Q133.4 22.8 133.5 23.4L133.5 23.4ZM138.6 22.4L136.2 29.4L134.6 29.4L137.6 20.6L139.6 20.6L142.7 29.4L141.0 29.4L138.6 22.4L138.6 22.4ZM136.3 27.2L136.3 25.9L140.9 25.9L140.9 27.2L136.3 27.2ZM149.2 29.4L143.8 29.4L143.8 20.6L145.4 20.6L145.4 28.0L149.2 28.0L149.2 29.4ZM158.4 25L158.4 25Q158.4 26.4 157.9 27.4Q157.3 28.4 156.4 29.0Q155.5 29.5 154.4 29.5L154.4 29.5Q153.2 29.5 152.3 28.9Q151.4 28.4 150.9 27.4Q150.4 26.4 150.4 25L150.4 25Q150.4 23.6 150.9 22.6Q151.4 21.6 152.3 21.0Q153.2 20.5 154.4 20.5L154.4 20.5Q155.5 20.5 156.4 21.0Q157.3 21.6 157.9 22.6Q158.4 23.6 158.4 25ZM156.8 25L156.8 25Q156.8 24.0 156.5 23.3Q156.2 22.6 155.6 22.3Q155.1 21.9 154.4 21.9L154.4 21.9Q153.7 21.9 153.1 22.3Q152.6 22.6 152.3 23.3Q152.0 24.0 152.0 25L152.0 25Q152.0 26.0 152.3 26.7Q152.6 27.4 153.1 27.7Q153.7 28.1 154.4 28.1L154.4 28.1Q155.1 28.1 155.6 27.7Q156.2 27.4 156.5 26.7Q156.8 26.0 156.8 25Z M168.6 29.4L162.9 29.4L162.9 20.6L168.5 20.6L168.5 22.0L164.5 22.0L164.5 24.3L168.3 24.3L168.3 25.7L164.5 25.7L164.5 28.0L168.6 28.0L168.6 29.4ZM175.8 20.6L177.3 20.6L177.3 29.4L175.9 29.4L171.8 23.4L171.7 23.4L171.7 29.4L170.2 29.4L170.2 20.6L171.6 20.6L175.7 26.6L175.8 26.6L175.8 20.6Z "/><mask id="satori_om-id-1-1"><rect x="87" y="33" width="106" height="30" fill="#fff"/></mask><path fill="white" d="M92.9 58.5L89.1 58.5L89.1 37.5L102.6 37.5L102.6 40.7L92.9 40.7L92.9 46.4L101.7 46.4L101.7 49.6L92.9 49.6L92.9 58.5ZM105.9 37.5L109.6 37.5L109.6 58.5L105.9 58.5L105.9 37.5ZM118.0 58.9L118.0 58.9Q116.5 58.9 115.3 58.3Q114.1 57.8 113.4 56.7Q112.7 55.7 112.7 54.1L112.7 54.1Q112.7 52.8 113.2 51.9Q113.7 51.0 114.6 50.5Q115.4 50.0 116.5 49.7Q117.6 49.4 118.7 49.3L118.7 49.3Q120.1 49.2 121.0 49.0Q121.8 48.9 122.2 48.7Q122.6 48.4 122.6 47.9L122.6 47.9L122.6 47.8Q122.6 46.7 121.9 46.0Q121.3 45.4 120.0 45.4L120.0 45.4Q118.6 45.4 117.8 46.0Q117.0 46.6 116.7 47.4L116.7 47.4L113.2 46.9Q113.6 45.4 114.6 44.5Q115.5 43.5 116.9 43.0Q118.3 42.5 119.9 42.5L119.9 42.5Q121.1 42.5 122.2 42.8Q123.3 43.1 124.3 43.7Q125.2 44.3 125.8 45.3Q126.4 46.4 126.4 48.0L126.4 48.0L126.4 58.5L122.8 58.5L122.8 56.4L122.7 56.4Q122.3 57.0 121.7 57.6Q121.1 58.2 120.2 58.5Q119.2 58.9 118.0 58.9ZM119.0 56.1L119.0 56.1Q120.1 56.1 120.9 55.7Q121.7 55.2 122.2 54.5Q122.6 53.7 122.6 52.9L122.6 52.9L122.6 51.0Q122.5 51.2 122.1 51.3Q121.6 51.4 121.1 51.5Q120.6 51.6 120.1 51.7Q119.6 51.7 119.2 51.8L119.2 51.8Q118.4 51.9 117.7 52.2Q117.1 52.4 116.7 52.9Q116.3 53.3 116.3 54.0L116.3 54.0Q116.3 55.1 117.1 55.6Q117.8 56.1 119.0 56.1ZM128.9 42.7L138.0 42.7L138.0 45.6L128.9 45.6L128.9 42.7ZM131.2 54.4L131.2 38.9L134.9 38.9L134.9 53.8Q134.9 54.5 135.1 54.9Q135.4 55.3 135.7 55.5Q136.1 55.6 136.6 55.6L136.6 55.6Q136.9 55.6 137.2 55.6Q137.5 55.5 137.7 55.5L137.7 55.5L138.3 58.4Q138.0 58.5 137.5 58.6Q136.9 58.7 136.1 58.8L136.1 58.8Q134.7 58.8 133.6 58.3Q132.5 57.9 131.8 56.9Q131.2 55.9 131.2 54.4L131.2 54.4ZM144.9 49.3L144.9 49.3L144.9 58.5L141.1 58.5L141.1 37.5L144.8 37.5L144.8 45.4L145.0 45.4Q145.5 44.1 146.7 43.3Q147.9 42.5 149.7 42.5L149.7 42.5Q151.3 42.5 152.5 43.2Q153.8 43.9 154.4 45.2Q155.1 46.6 155.1 48.5L155.1 48.5L155.1 58.5L151.4 58.5L151.4 49.1Q151.4 47.5 150.6 46.6Q149.8 45.7 148.3 45.7L148.3 45.7Q147.3 45.7 146.5 46.1Q145.7 46.5 145.3 47.3Q144.9 48.1 144.9 49.3ZM169.0 51.9L169.0 51.9L169.0 42.7L172.7 42.7L172.7 58.5L169.1 58.5L169.1 55.7L168.9 55.7Q168.4 57.1 167.2 57.9Q166.0 58.8 164.2 58.8L164.2 58.8Q162.6 58.8 161.4 58.1Q160.3 57.4 159.6 56.0Q158.9 54.7 158.9 52.8L158.9 52.8L158.9 42.7L162.6 42.7L162.6 52.2Q162.6 53.7 163.5 54.6Q164.3 55.5 165.6 55.5L165.6 55.5Q166.5 55.5 167.2 55.1Q168.0 54.7 168.5 53.9Q169.0 53.1 169.0 51.9ZM180.4 58.5L176.7 58.5L176.7 37.5L180.4 37.5L180.4 45.3L180.6 45.3Q180.9 44.8 181.4 44.1Q181.9 43.5 182.8 43.0Q183.7 42.5 185.1 42.5L185.1 42.5Q187.0 42.5 188.4 43.5Q189.9 44.4 190.8 46.2Q191.7 48.0 191.7 50.7L191.7 50.7Q191.7 53.3 190.8 55.1Q189.9 56.9 188.5 57.9Q187.0 58.8 185.1 58.8L185.1 58.8Q183.8 58.8 182.9 58.4Q182.0 57.9 181.4 57.3Q180.9 56.6 180.6 56.1L180.6 56.1L180.4 56.1L180.4 58.5ZM180.4 50.6L180.4 50.6Q180.4 52.2 180.8 53.3Q181.3 54.5 182.1 55.1Q182.9 55.8 184.1 55.8L184.1 55.8Q185.3 55.8 186.2 55.1Q187.0 54.4 187.4 53.3Q187.9 52.1 187.9 50.6L187.9 50.6Q187.9 49.2 187.4 48.0Q187.0 46.9 186.2 46.2Q185.3 45.6 184.1 45.6L184.1 45.6Q182.9 45.6 182.1 46.2Q181.2 46.8 180.8 48.0Q180.4 49.1 180.4 50.6Z "/></svg>